<svg width="16" height="16" viewBox="0 0 16 16" fill="none" xmlns="http://www.w3.org/2000/svg">
<g opacity="0.16">
<path d="M15.3337 14.5C15.3337 15.2364 12.0504 15.8333 8.00033 15.8333C3.95024 15.8333 0.666992 15.2364 0.666992 14.5C0.666992 13.7636 3.95024 13.1667 8.00033 13.1667C12.0504 13.1667 15.3337 13.7636 15.3337 14.5Z" fill="#2257D3"/>
<path d="M8.50033 4C8.50033 3.72386 8.27647 3.5 8.00033 3.5C7.72418 3.5 7.50033 3.72386 7.50033 4V8C7.50033 8.18939 7.60733 8.36252 7.77672 8.44721L10.4434 9.78055C10.6904 9.90404 10.9907 9.80393 11.1142 9.55694C11.2377 9.30995 11.1376 9.00961 10.8906 8.88612L8.50033 7.69098V4Z" fill="#2257D3"/>
</g>
<path fill-rule="evenodd" clip-rule="evenodd" d="M0.833008 8.00016C0.833008 4.04212 4.04163 0.833496 7.99967 0.833496C11.9577 0.833496 15.1663 4.04212 15.1663 8.00016C15.1663 11.9582 11.9577 15.1668 7.99967 15.1668C4.04163 15.1668 0.833008 11.9582 0.833008 8.00016ZM7.99967 3.50016C8.27582 3.50016 8.49967 3.72402 8.49967 4.00016V7.69115L10.8899 8.88628C11.1369 9.00978 11.237 9.31011 11.1136 9.5571C10.9901 9.80409 10.6897 9.9042 10.4427 9.78071L7.77607 8.44738C7.60668 8.36268 7.49967 8.18955 7.49967 8.00016V4.00016C7.49967 3.72402 7.72353 3.50016 7.99967 3.50016Z" fill="#2257D3"/>
</svg>
